<svg width="40" height="40" viewBox="0 0 40 40" fill="none" xmlns="http://www.w3.org/2000/svg">
<path d="M8.33333 35C7.41667 35 6.63194 34.6736 5.97917 34.0208C5.32639 33.3681 5 32.5833 5 31.6667V8.33333C5 7.41667 5.32639 6.63194 5.97917 5.97917C6.63194 5.32639 7.41667 5 8.33333 5H23.2083L19.875 8.33333H8.33333V31.6667H31.6667V20.0833L35 16.75V31.6667C35 32.5833 34.6736 33.3681 34.0208 34.0208C33.3681 34.6736 32.5833 35 31.6667 35H8.33333ZM15 25V17.9167L30.2917 2.625C30.625 2.29167 31 2.04167 31.4167 1.875C31.8333 1.70833 32.25 1.625 32.6667 1.625C33.1111 1.625 33.5347 1.70833 33.9375 1.875C34.3403 2.04167 34.7083 2.29167 35.0417 2.625L37.375 5C37.6806 5.33333 37.9167 5.70139 38.0833 6.10417C38.25 6.50694 38.3333 6.91667 38.3333 7.33333C38.3333 7.75 38.2569 8.15972 38.1042 8.5625C37.9514 8.96528 37.7083 9.33333 37.375 9.66667L22.0833 25H15ZM18.3333 21.6667H20.6667L30.3333 12L29.1667 10.8333L27.9583 9.66667L18.3333 19.2917V21.6667Z" fill="#BEBEBE"/>
</svg>
