<svg width="30" height="30" viewBox="0 0 30 30" fill="none" xmlns="http://www.w3.org/2000/svg">
<path d="M3.75 0C1.6725 0 0 1.6725 0 3.75V26.25C0 28.3275 1.6725 30 3.75 30H26.25C28.3275 30 30 28.3275 30 26.25V3.75C30 1.6725 28.3275 0 26.25 0H3.75ZM12.3538 7.8125C13.1413 7.8125 13.61 8.1875 13.76 8.9375L15.5887 19.3162C16.17 18.5475 16.6462 17.9 17.0212 17.375C17.6025 16.55 18.1375 15.6025 18.625 14.5337C19.1313 13.465 19.385 12.5087 19.385 11.665C19.385 11.1587 19.2437 10.7562 18.9625 10.4562C18.7 10.1375 18.2025 9.735 17.4713 9.2475C18.2213 8.29125 19.1587 7.8125 20.2837 7.8125C20.8837 7.8125 21.3813 7.99125 21.775 8.3475C22.1875 8.70375 22.3925 9.2275 22.3925 9.9225C22.3925 11.085 21.905 12.5387 20.93 14.2825C19.9737 16.0075 18.1287 18.6038 15.3912 22.0725L12.6075 22.2675L10.4688 10.2325H7.65625V9.05C8.40625 8.80625 9.2875 8.5425 10.3 8.2625C11.3125 7.9625 11.9975 7.8125 12.3538 7.8125Z" fill="url(#paint0_linear_1_80)"/>
<defs>
<linearGradient id="paint0_linear_1_80" x1="15" y1="0" x2="15" y2="30" gradientUnits="userSpaceOnUse">
<stop stop-color="#59FBD5"/>
<stop offset="1" stop-color="#6DFF9E"/>
</linearGradient>
</defs>
</svg>
