<svg width="51" height="43" viewBox="0 0 51 43" fill="none" xmlns="http://www.w3.org/2000/svg">
<path fill-rule="evenodd" clip-rule="evenodd" d="M49.1006 2.61435C51.9094 5.77923 51.5629 10.5717 48.3267 13.3185L37.825 22.2321C33.1658 26.1868 26.2989 26.3721 21.4237 22.6748L17.3478 19.5836L21.0124 33.5206C22.0796 37.5792 19.5803 41.7154 15.4302 42.7591C11.28 43.8027 7.05045 41.3586 5.98326 37.3L0.436544 16.2052C-2.63245 4.53354 11.1477 -4.32312 20.8857 3.06224L29.2563 9.41052L38.155 1.85749C41.3913 -0.889384 46.2918 -0.550526 49.1006 2.61435Z" fill="url(#paint0_linear_234_132)" fill-opacity="0.85"/>
<path d="M50.2237 26.3052C50.2237 29.3783 47.6762 31.8696 44.5337 31.8696C41.3912 31.8696 38.8438 29.3783 38.8438 26.3052C38.8438 23.232 41.3912 20.7407 44.5337 20.7407C47.6762 20.7407 50.2237 23.232 50.2237 26.3052Z" fill="url(#paint1_linear_234_132)" fill-opacity="0.85"/>
<path d="M45.5683 36.6748C45.5683 38.4908 44.0629 39.9629 42.206 39.9629C40.3491 39.9629 38.8438 38.4908 38.8438 36.6748C38.8438 34.8588 40.3491 33.3867 42.206 33.3867C44.0629 33.3867 45.5683 34.8588 45.5683 36.6748Z" fill="url(#paint2_linear_234_132)" fill-opacity="0.85"/>
<path d="M38.3269 40.7222C38.3269 41.7 37.5164 42.4927 36.5165 42.4927C35.5166 42.4927 34.7061 41.7 34.7061 40.7222C34.7061 39.7443 35.5166 38.9517 36.5165 38.9517C37.5164 38.9517 38.3269 39.7443 38.3269 40.7222Z" fill="url(#paint3_linear_234_132)" fill-opacity="0.85"/>
<defs>
<linearGradient id="paint0_linear_234_132" x1="25.5" y1="0" x2="25.5" y2="43" gradientUnits="userSpaceOnUse">
<stop stop-color="#56FF85"/>
<stop offset="1" stop-color="#38F9D7"/>
</linearGradient>
<linearGradient id="paint1_linear_234_132" x1="44.5337" y1="20.7407" x2="44.5337" y2="31.8696" gradientUnits="userSpaceOnUse">
<stop stop-color="#43E97B"/>
<stop offset="1" stop-color="#38F9D7"/>
</linearGradient>
<linearGradient id="paint2_linear_234_132" x1="42.206" y1="33.3867" x2="42.206" y2="39.9629" gradientUnits="userSpaceOnUse">
<stop stop-color="#43E97B"/>
<stop offset="1" stop-color="#38F9D7"/>
</linearGradient>
<linearGradient id="paint3_linear_234_132" x1="36.5165" y1="38.9517" x2="36.5165" y2="42.4927" gradientUnits="userSpaceOnUse">
<stop stop-color="#43E97B"/>
<stop offset="1" stop-color="#38F9D7"/>
</linearGradient>
</defs>
</svg>
