<svg width="467" height="379" viewBox="0 0 467 379" fill="none" xmlns="http://www.w3.org/2000/svg">
<path fill-rule="evenodd" clip-rule="evenodd" d="M449.608 23.043C475.328 50.9384 472.155 93.179 442.521 117.39L346.358 195.955C303.695 230.811 240.815 232.445 196.174 199.856L158.851 172.61L192.408 295.452C202.18 331.225 179.295 367.682 141.292 376.881C103.289 386.079 64.56 364.537 54.7878 328.764L3.99737 142.834C-24.105 39.9588 102.078 -38.1041 191.248 26.9908L267.896 82.9447L349.38 16.372C379.014 -7.83907 423.887 -4.85236 449.608 23.043Z" fill="url(#paint0_linear_234_127)" fill-opacity="0.85"/>
<path d="M459.893 231.851C459.893 258.938 436.566 280.897 407.791 280.897C379.016 280.897 355.689 258.938 355.689 231.851C355.689 204.764 379.016 182.806 407.791 182.806C436.566 182.806 459.893 204.764 459.893 231.851Z" fill="url(#paint1_linear_234_127)" fill-opacity="0.85"/>
<path d="M417.264 323.254C417.264 339.26 403.48 352.236 386.477 352.236C369.473 352.236 355.689 339.26 355.689 323.254C355.689 307.248 369.473 294.273 386.477 294.273C403.48 294.273 417.264 307.248 417.264 323.254Z" fill="url(#paint2_linear_234_127)" fill-opacity="0.85"/>
<path d="M350.952 358.924C350.952 367.542 343.53 374.529 334.374 374.529C325.219 374.529 317.796 367.542 317.796 358.924C317.796 350.305 325.219 343.318 334.374 343.318C343.53 343.318 350.952 350.305 350.952 358.924Z" fill="url(#paint3_linear_234_127)" fill-opacity="0.85"/>
<defs>
<linearGradient id="paint0_linear_234_127" x1="233.5" y1="0" x2="233.5" y2="379.004" gradientUnits="userSpaceOnUse">
<stop stop-color="#56FF85"/>
<stop offset="1" stop-color="#38F9D7"/>
</linearGradient>
<linearGradient id="paint1_linear_234_127" x1="407.791" y1="182.806" x2="407.791" y2="280.897" gradientUnits="userSpaceOnUse">
<stop stop-color="#43E97B"/>
<stop offset="1" stop-color="#38F9D7"/>
</linearGradient>
<linearGradient id="paint2_linear_234_127" x1="386.477" y1="294.273" x2="386.477" y2="352.236" gradientUnits="userSpaceOnUse">
<stop stop-color="#43E97B"/>
<stop offset="1" stop-color="#38F9D7"/>
</linearGradient>
<linearGradient id="paint3_linear_234_127" x1="334.374" y1="343.318" x2="334.374" y2="374.529" gradientUnits="userSpaceOnUse">
<stop stop-color="#43E97B"/>
<stop offset="1" stop-color="#38F9D7"/>
</linearGradient>
</defs>
</svg>
